#!OML:ASF H:\Terrain\Walking\May29\JustinRory\Justin.ASF
:FULLY-SPECIFIED
:DEGREES
478
root 20.3928 17.3377 -13.1295 1.27217 -38.8673 -2.34573
lowerback 5.78039 -4.80561 -3.55197
upperback 0.889962 -6.58119 2.55223
thorax -1.60487 -3.28004 5.04965
lowerneck -12.1892 -9.1515 -13.7684
upperneck 15.2223 -10.9935 6.23266
head 7.82378 -5.53703 3.03568
rclavicle -7.16246e-014 1.76918e-014
rhumerus -31.964 -29.3285 -57.8334
rradius 37.9468
rwrist -12.4075
rhand -20.8557 16.9421
rfingers 7.12502
rthumb 5.51369 -12.9662
lclavicle -7.16246e-014 1.76918e-014
lhumerus -17.3144 3.91802 82.5143
lradius 44.1335
lwrist -5.24442
lhand -6.13064 40.8216
lfingers 7.12502
lthumb 19.7068 69.8426
rfemur -22.3007 -0.0485584 13.4238
rtibia 28.1902
rfoot -3.41985 -14.741
rtoes 15.4349
lfemur -0.452903 4.99776 -16.8562
ltibia 25.5909
lfoot -22.0701 9.49622
ltoes -6.19483
479
root 20.4034 17.3232 -13.0577 -0.568124 -39.1743 0.245116
lowerback 5.70403 -4.72232 -5.33184
upperback 0.998963 -6.58307 1.93675
thorax -1.32119 -3.28313 5.38097
lowerneck -12.6047 -9.09315 -14.0973
upperneck 15.5622 -10.8943 6.71143
head 8.04627 -5.4621 3.23934
rclavicle 7.43206e-014 -1.11319e-014
rhumerus -33.0716 -31.7824 -56.4272
rradius 33.7191
rwrist -9.66346
rhand -19.4044 18.0299
rfingers 7.12502
rthumb 6.91476 -11.8372
lclavicle 7.43206e-014 -1.11319e-014
lhumerus -19.1289 7.86425 81.6627
lradius 41.9022
lwrist -7.58157
lhand -6.22713 42.0479
lfingers 7.12502
lthumb 19.614 71.0785
rfemur -22.5869 -1.39719 11.4946
rtibia 28.9951
rfoot -2.78118 -14.3678
rtoes 12.3109
lfemur 0.261132 5.42125 -19.2735
ltibia 25.2272
lfoot -22.226 9.64014
ltoes -6.45212
480
root 20.4141 17.312 -13.0142 -1.27865 -39.3739 1.27363
lowerback 5.78578 -4.65202 -5.74442
upperback 1.02162 -6.52505 1.45562
thorax -1.36147 -3.24928 5.11558
lowerneck -12.0132 -9.13306 -15.1724
upperneck 15.0464 -11.1726 8.66808
head 7.98358 -5.49908 4.04591
rclavicle 1.36851e-013 -5.1684e-015
rhumerus -34.9337 -34.3016 -54.9012
rradius 29.8514
rwrist -6.20381
rhand -17.1957 18.2848
rfingers 7.12502
rthumb 9.04654 -11.5012
lclavicle 1.36851e-013 -5.1684e-015
lhumerus -21.0163 11.1776 80.1882
lradius 39.6309
lwrist -9.95065
lhand -6.99417 43.4948
lfingers 7.12502
lthumb 18.8764 72.5989
rfemur -22.6487 -2.00778 10.8871
rtibia 28.8543
rfoot -2.24013 -14.9613
rtoes 11.5068
lfemur 0.0828851 5.72084 -20.2333
ltibia 26.0421
lfoot -22.8397 9.55021
ltoes -5.87244
481
root 20.4176 17.3056 -12.9716 -0.932619 -39.8976 0.687302
lowerback 5.83561 -4.48309 -5.05156
upperback 1.07806 -6.26009 1.40727
thorax -1.44503 -3.11695 4.67457
lowerneck -10.2943 -9.0072 -16.4487
upperneck 13.1859 -11.3884 11.3096
head 7.34121 -5.50367 5.16779
rclavicle 5.77718e-016 3.97569e-016
rhumerus -37.4615 -36.7859 -52.6875
rradius 26.7859
rwrist -2.44907
rhand -17.1333 17.015
rfingers 7.12502
rthumb 9.10667 -12.7684
lclavicle 5.77718e-016 3.97569e-016
lhumerus -22.7933 14.4998 78.6223
lradius 37.2821
lwrist -12.3541
lhand -7.85747 45.4353
lfingers 7.12502
lthumb 18.046 74.6182
rfemur -23.0394 -2.03742 11.6877
rtibia 29.3422
rfoot -2.4399 -15.485
rtoes 12.5485
lfemur 0.242106 5.73123 -19.8797
ltibia 26.0929
lfoot -23.0333 9.83604
ltoes -4.37199
482
root 20.4198 17.3081 -12.9405 0.406232 -40.5011 -0.95987
lowerback 5.74824 -4.32995 -3.89724
upperback 1.04989 -5.97518 1.88801
thorax -1.52534 -2.97722 4.51333
lowerneck -8.12761 -9.19013 -19.6321
upperneck 10.6263 -12.0728 15.961
head 6.76742 -5.75103 7.23469
rclavicle -4.42172e-014 -1.92821e-014
rhumerus -39.9067 -38.7677 -50.0903
rradius 23.9622
rwrist 0.686218
rhand -18.7598 15.6624
rfingers 7.12502
rthumb 7.53699 -14.1833
lclavicle -4.42172e-014 -1.92821e-014
lhumerus -24.5466 18.4985 77.0405
lradius 34.8364
lwrist -15.1303
lhand -8.05091 46.8929
lfingers 7.12502
lthumb 17.8599 76.0928
rfemur -23.5554 -1.64918 13.3714
rtibia 29.3604
rfoot -2.61945 -16.308
rtoes 14.8055
lfemur -0.282137 6.23632 -18.5939
ltibia 26.7716
lfoot -23.3119 10.1421
ltoes -5.40639
483
root 20.4393 17.3138 -12.9274 2.45613 -40.7191 -3.09072
lowerback 5.60414 -4.26927 -2.2069
upperback 0.876875 -5.78121 2.43344
thorax -1.75516 -2.8806 4.12724
lowerneck -10.788 -9.69183 -17.2996
upperneck 12.967 -12.2741 12.3709
head 7.61539 -5.86935 5.51495
rclavicle 5.79706e-014 2.48481e-014
rhumerus -42.7542 -40.8852 -47.0322
rradius 21.1789
rwrist 4.01957
rhand -19.3183 14.7794
rfingers 7.12502
rthumb 6.99786 -15.0849
lclavicle 5.79706e-014 2.48481e-014
lhumerus -26.3421 22.0607 75.1763
lradius 32.4253
lwrist -17.6457
lhand -8.19711 47.9103
lfingers 7.12502
lthumb 17.7192 77.1229
rfemur -24.6948 -1.22575 15.3992
rtibia 29.6591
rfoot -2.76828 -17.6634
rtoes 16.7416
lfemur -1.17405 6.47152 -16.9911
ltibia 27.0267
lfoot -23.1457 10.5714
ltoes -7.31009
484
root 20.4619 17.3228 -12.9159 4.34382 -40.783 -4.60806
lowerback 5.31604 -4.27999 -0.976169
upperback 0.580406 -5.71236 2.81821
thorax -1.98728 -2.84637 3.82993
lowerneck -12.3259 -9.5515 -15.2277
upperneck 14.076 -11.8033 9.66713
head 7.86341 -5.6986 4.2908
rclavicle 1.19035e-013 -1.09332e-014
rhumerus -46.3077 -42.8761 -43.3258
rradius 18.8958
rwrist 8.10361
rhand -18.6419 13.0479
rfingers 7.12502
rthumb 7.65078 -16.7937
lclavicle 1.19035e-013 -1.09332e-014
lhumerus -28.571 25.4017 72.8742
lradius 30.4075
lwrist -20.0381
lhand -8.59085 49.4392
lfingers 7.12502
lthumb 17.3403 78.6857
rfemur -26.1878 -0.907682 16.9365
rtibia 30.0406
rfoot -2.51956 -19.217
rtoes 17.5117
lfemur -2.31556 6.18228 -15.9818
ltibia 27.1941
lfoot -23.0391 11.0557
ltoes -7.49384
485
root 20.4352 17.3131 -12.836 0.804979 -40.7428 -0.728228
lowerback 6.0114 -4.29368 -4.11848
upperback 0.823481 -5.94655 2.11708
thorax -1.86175 -2.94788 4.90835
lowerneck -12.715 -9.33399 -14.6621
upperneck 14.3606 -11.4294 8.89029
head 7.89237 -5.54472 3.9821
rclavicle 5.90142e-014 -3.77691e-015
rhumerus -50.8159 -45.19 -38.1776
rradius 17.0006
rwrist 13.7335
rhand -16.8936 10.8775
rfingers 7.12502
rthumb 9.33801 -18.8956
lclavicle 5.90142e-014 -3.77691e-015
lhumerus -31.5526 29.2117 70.0107
lradius 28.7188
lwrist -23.2408
lhand -9.00567 50.821
lfingers 7.12502
lthumb 16.941 80.1022
rfemur -25.329 -2.70132 14.0303
rtibia 30.6615
rfoot -2.51006 -18.8489
rtoes 17.6537
lfemur -0.725225 6.61287 -19.169
ltibia 27.0223
lfoot -23.4703 10.7838
ltoes -7.78213
486
root 20.4206 17.2997 -12.7982 0.167595 -40.7437 -0.314068
lowerback 6.60265 -4.30742 -4.65518
upperback 0.844396 -6.02356 2.15611
thorax -2.10077 -2.97607 5.30513
lowerneck -12.1926 -9.52983 -14.6846
upperneck 13.5389 -11.5998 8.2697
head 7.51491 -5.68329 3.77815
rclavicle -8.78628e-014 -5.96354e-015
rhumerus -55.9457 -47.2556 -32.6419
rradius 15.6879
rwrist 19.2176
rhand -14.3183 8.962
rfingers 7.12502
rthumb 11.8222 -20.6843
lclavicle -8.78628e-014 -5.96354e-015
lhumerus -34.6802 32.3717 66.7721
lradius 26.9921
lwrist -26.216
lhand -9.6776 51.8881
lfingers 7.12502
lthumb 16.2941 81.2235
rfemur -25.2984 -3.22638 13.9947
rtibia 31.2693
rfoot -3.00028 -19.4467
rtoes 17.9014
lfemur -0.0317206 6.83051 -19.4742
ltibia 26.7635
lfoot -23.5154 10.7305
ltoes -7.74454
487
root 20.4187 17.2969 -12.7677 0.820804 -40.7262 -0.873517
lowerback 6.65395 -4.42219 -4.08539
upperback 0.73411 -6.13557 2.25319
thorax -2.2791 -3.02794 5.108
lowerneck -12.7527 -9.4297 -14.3103
upperneck 13.6728 -11.432 8.12786
head 7.60322 -5.58123 3.67567
rclavicle -1.28912e-013 2.28602e-014
rhumerus -59.3208 -47.2579 -30.144
rradius 15.047
rwrist 21.6007
rhand -11.8882 7.26391
rfingers 7.12502
rthumb 14.1647 -22.2332
lclavicle -1.28912e-013 2.28602e-014
lhumerus -37.6646 34.6399 63.3424
lradius 25.2383
lwrist -28.3482
lhand -10.1388 52.9728
lfingers 7.12502
lthumb 15.85 82.3441
rfemur -26.0696 -3.40294 14.7638
rtibia 31.8903
rfoot -3.48177 -20.3638
rtoes 18.296
lfemur -0.118525 6.38374 -19.1917
ltibia 26.4158
lfoot -23.3808 11.1522
ltoes -7.34785
